<svg width="84" height="57" viewBox="0 0 84 57" fill="none" xmlns="http://www.w3.org/2000/svg">
<g clip-path="url(#clip0_1_2)">
<path d="M54.978 37.1443L37.7061 7.12712L50.1143 3.05176e-05L71.5918 37.1443H54.978Z" fill="black"/>
<path d="M8.97302 32.9387L21.3812 25.7634L27.9465 37.1443H11.3808L8.97302 32.9387Z" fill="black"/>
<path d="M33.3239 56.2943H36.8553V42.0081H33.3239V56.2943Z" fill="black"/>
<path d="M77.5792 56.6314C73.6304 56.6314 71.2547 54.5928 71.1263 51.7195H74.8504C74.8504 52.6184 75.4122 53.9347 77.82 53.9828C79.4252 53.9828 80.1796 53.0357 80.1796 52.3295C80.0833 51.2058 78.6707 51.1095 77.1618 50.8687C75.653 50.628 74.3688 50.3551 73.4378 49.8735C72.2499 49.2635 71.4473 47.9473 71.4473 46.4384C71.4473 43.8861 73.6625 41.8636 77.3544 41.8636C80.934 41.8636 83.1974 43.7417 83.4382 46.5347H79.8425C79.8104 45.7803 79.6659 44.5924 77.5471 44.5924C76.1184 44.5924 75.1714 44.8813 75.0911 45.8766C75.0911 47.3373 78.0607 47.241 80.3722 47.851C82.5874 48.4128 84 49.7933 84 51.7195C84 55.267 81.1267 56.6314 77.5792 56.6314" fill="black"/>
<path d="M23.5161 20.1934L35.9243 13.0342L49.8414 37.1443H36.8553V40.6757H33.3239V37.1282L23.5161 20.1934Z" fill="black"/>
<path fill-rule="evenodd" clip-rule="evenodd" d="M23.8372 56.6314C19.7279 56.6314 16.389 53.2765 16.389 49.2154C16.389 45.1061 19.7279 41.8636 23.8372 41.8636C25.3942 41.8636 26.8068 42.2809 28.0428 43.1317V37.1443H31.5742V56.2943H28.0428V55.3472C26.8068 56.1498 25.3942 56.6314 23.8372 56.6314V56.6314ZM19.776 49.2154C19.776 51.4305 21.6701 53.2765 23.9335 53.2765C26.1486 53.2765 28.0428 51.4305 28.0428 49.2154C28.0428 47.0002 26.1486 45.1061 23.9335 45.1061C21.6701 45.1061 19.776 47.0002 19.776 49.2154" fill="black"/>
<path fill-rule="evenodd" clip-rule="evenodd" d="M49.9377 37.1443H53.4209V56.2943H49.9377V55.3472C48.7498 56.1498 47.2891 56.6314 45.6839 56.6314C41.6227 56.6314 38.2839 53.2765 38.2839 49.2154C38.2839 45.1061 41.6227 41.8636 45.6839 41.8636C47.2891 41.8636 48.7017 42.2809 49.9377 43.1317V37.1443V37.1443ZM41.7191 49.2154C41.7191 51.4305 43.6132 53.2765 45.7802 53.2765C48.0435 53.2765 49.9377 51.4305 49.9377 49.2154C49.9377 47.0002 48.0435 45.1061 45.7802 45.1061C43.6132 45.1061 41.7191 47.0002 41.7191 49.2154Z" fill="black"/>
<path fill-rule="evenodd" clip-rule="evenodd" d="M62.0088 56.6314C57.9637 56.6314 54.6088 53.2765 54.6088 49.2154C54.6088 45.1061 57.9637 41.8636 62.0088 41.8636C63.5658 41.8636 65.0266 42.2809 66.2144 43.1317V41.992H69.7458V56.2943H66.2144V55.3472C65.0266 56.1498 63.614 56.6314 62.0088 56.6314ZM58.044 49.2154C58.044 51.4305 59.9381 53.2765 62.1533 53.2765C64.3684 53.2765 66.2144 51.4305 66.2144 49.2154C66.2144 47.0002 64.3684 45.1061 62.1533 45.1061C59.9381 45.1061 58.044 47.0002 58.044 49.2154Z" fill="black"/>
<path fill-rule="evenodd" clip-rule="evenodd" d="M3.40302 49.2154C3.40302 51.4305 5.29715 53.2765 7.51233 53.2765C9.77565 53.2765 11.6698 51.4305 11.6698 49.2154C11.6698 47.0002 9.77565 45.1061 7.51233 45.1061C5.29715 45.1061 3.40302 47.0002 3.40302 49.2154V49.2154ZM7.41601 56.6314C3.35486 56.6314 0 53.2765 0 49.2154C0 45.1061 3.35486 41.8636 7.41601 41.8636C8.97305 41.8636 10.4338 42.2809 11.6698 43.1317V41.992H15.1531V56.2943H11.6698V55.3472C10.4819 56.1498 9.02121 56.6314 7.41601 56.6314Z" fill="black"/>
</g>
<defs>
<clipPath id="clip0_1_2">
<rect width="84" height="56.6314" fill="white"/>
</clipPath>
</defs>
</svg>
