<svg width="84" height="84" viewBox="0 0 84 84" fill="none" xmlns="http://www.w3.org/2000/svg">
<g clip-path="url(#clip0_1_53)">
<path d="M42 83.16C64.732 83.16 83.16 64.7321 83.16 42C83.16 19.268 64.732 0.840027 42 0.840027C19.268 0.840027 0.839996 19.268 0.839996 42C0.839996 64.7321 19.268 83.16 42 83.16Z" fill="#0032A0"/>
<path d="M23.231 34.8129H19.703V42.3007C16.6118 39.5287 13.5274 36.7567 10.3606 33.9897V49.187H13.8886V41.6993C16.8319 44.3117 19.992 47.2433 23.2327 50.0102L23.231 34.8129ZM31.0548 49.182H27.5268V34.8129H31.0548V49.182ZM40.199 50.0052C37.6992 45.3012 35.196 39.8966 32.6962 34.8079H36.6677L40.1957 42.593L43.5926 34.8079H47.4835C45.061 39.9101 42.6317 45.2945 40.2041 50.0102L40.199 50.0052ZM58.6404 37.9529H52.6697V40.4325H58.6471V43.5674H52.6697V46.032H58.6471V49.1669H49.1383V34.8029H58.6471L58.6404 37.9529ZM67.6049 33.9897C65.1773 38.7811 62.7497 43.9471 60.3221 49.187H64.008L64.7422 47.465H70.4894L71.227 49.187H75.0456C72.529 43.9471 70.0291 38.7072 67.6049 33.9897ZM65.7754 44.7686L67.6049 40.5888L69.3722 44.7686H65.7754Z" fill="white"/>
</g>
<defs>
<clipPath id="clip0_1_53">
<rect width="84" height="84" fill="white"/>
</clipPath>
</defs>
</svg>
