<svg width="84" height="56" viewBox="0 0 84 56" fill="none" xmlns="http://www.w3.org/2000/svg">
<g clip-path="url(#clip0_1_41)">
<path d="M59.0319 1.68091C62.083 0.182409 63.595 0.379055 63.629 1.89794C63.6698 3.87104 63.3781 6.4949 63.1678 8.39344C62.0355 18.7124 60.1438 27.1443 60.0014 37.7392C64.9849 24.8377 69.1616 15.8708 74.5451 4.82701C76.2539 1.308 77.3454 1.96574 78.7489 1.3419C84.2138 -1.09218 84.4174 0.399447 83.7052 3.37605C81.0542 14.4008 74.267 49.113 73.2298 54.4581C72.9314 56.0046 71.25 55.349 70.8159 54.7442C68.8701 52.0524 66.6733 52.0104 66.9172 50.2204C68.1378 41.3089 72.5313 18.9504 73.6773 13.682C67.8393 25.6506 61.7846 40.6127 58.6724 49.0962C58.0147 50.8977 56.8145 50.7655 56.0688 49.4474C55.0178 47.5958 52.977 46.6505 52.6379 44.4625C51.5734 37.506 53.8584 24.2464 54.1769 15.8578C50.9972 25.0214 45.661 42.8122 43.3218 50.8502C42.3591 54.176 39.1451 53.6334 39.9994 50.3919C43.5522 36.9025 51.2073 13.0447 54.516 4.46762C55.2961 2.44699 57.3368 2.51479 59.0319 1.68091Z" fill="#CC071E"/>
<path d="M39.6538 0.0264203C38.6233 -0.224396 35.6332 1.38932 33.7957 1.70794C33.2126 1.80964 32.6565 2.4266 32.4599 2.86743C29.5172 9.62738 26.8797 16.0713 24.5947 21.9417C21.6724 22.4407 18.2553 23.0977 14.4312 23.9567C17.1703 16.9303 19.9368 10.0002 22.6353 3.33516C23.9642 0.0534458 20.4657 -0.258411 19.1095 3.06396C17.3466 7.38307 14.0446 15.4753 10.39 24.9074C7.70495 25.5657 4.8573 26.3183 1.8807 27.1781C-0.282299 27.8026 -0.370331 28.3789 0.56537 29.676C1.08063 30.3982 2.14516 30.3254 2.63328 30.8401C3.89447 32.1738 4.66066 33.7692 6.91836 34.0106C4.9046 39.3975 2.89087 44.9527 1.06699 50.3016C-0.0788658 53.6592 3.18242 54.3459 4.43686 50.793C6.45738 45.0657 8.5864 39.2692 10.7764 33.4898C12.6003 33.0659 17.0142 32.1153 21.0892 31.2311C17.855 40.0956 15.7259 46.8278 14.9191 50.1048C14.77 50.7353 15.0208 51.0852 15.1564 51.3422C16.248 52.9308 17.2854 52.9959 18.689 54.9601C19.0688 55.4957 20.3435 55.7846 20.7773 54.4658C23.7742 45.4134 26.8593 36.9198 29.734 29.3054C30.9273 29.0444 33.0767 28.5257 34.392 26.5628C36.7312 23.079 37.4024 23.7856 37.9653 22.7265C38.6705 21.3969 38.2025 20.1486 35.7075 20.457C35.7075 20.457 34.765 20.5241 33.0225 20.7228C35.7888 13.6001 38.2094 7.55885 39.9519 2.95514C40.5489 1.39607 40.6234 0.256967 39.6538 0.0264203Z" fill="#CC071E"/>
<path d="M35.5722 46.2232C36.2163 47.8511 38.2301 47.3582 37.4639 45.3933C36.684 43.3917 34.7449 37.366 34.2363 35.4248C33.5448 32.809 36.5416 33.5244 35.0229 35.2345C33.7211 36.705 32.8531 37.2942 30.4462 40.0904C28.1206 42.7896 28.7512 46.2924 31.2395 47.0661C34.0465 47.9393 36.5214 44.8462 38.0537 42.5769C39.5386 40.3794 38.1011 39.0905 36.6027 40.3896C35.6398 41.2249 34.5279 42.5077 33.4023 43.1993C32.487 43.7559 31.7682 43.1579 32.9888 41.4778C34.4058 39.5326 35.9924 37.9026 37.1722 36.0644C39.5792 32.3183 34.8194 30.1589 32.7717 32.5922C31.6733 33.8893 31.9513 35.1627 32.2497 36.2556C32.7311 38.0062 34.5211 43.5946 35.5722 46.2232Z" fill="#CC071E"/>
</g>
<defs>
<clipPath id="clip0_1_41">
<rect width="84" height="55.4135" fill="white"/>
</clipPath>
</defs>
</svg>
